<?xml version="1.0" standalone="no"?>
<!DOCTYPE svg PUBLIC "-//W3C//DTD SVG 20010904//EN"
 "http://www.w3.org/TR/2001/REC-SVG-20010904/DTD/svg10.dtd">
<svg version="1.0" xmlns="http://www.w3.org/2000/svg"
 width="607.000000pt" height="607.000000pt" viewBox="0 0 607.000000 607.000000"
 preserveAspectRatio="xMidYMid meet">
<metadata>
Created by potrace 1.14, written by Peter Selinger 2001-2017
</metadata>
<g transform="translate(0.000000,607.000000) scale(0.100000,-0.100000)"
fill="#000000" stroke="none">
<path d="M3306 5211 c-3 -5 -8 -26 -12 -47 -16 -106 -72 -206 -187 -339 -87
-100 -155 -169 -597 -614 -217 -219 -424 -430 -460 -470 -201 -224 -290 -423
-295 -661 -2 -73 16 -215 29 -227 2 -2 9 29 15 69 25 154 84 280 202 428 72
91 260 292 266 286 3 -2 6 -39 7 -82 2 -85 3 -84 -94 -183 -185 -191 -322
-414 -356 -583 -27 -130 11 -370 67 -432 8 -9 20 -23 28 -31 21 -26 22 -12 2
47 -25 73 -22 199 8 282 45 128 138 267 275 412 l74 79 1 -90 1 -90 -41 -45
c-142 -154 -219 -279 -244 -397 -15 -69 -14 -208 1 -273 29 -121 121 -224 209
-236 l40 -6 -30 21 c-132 88 -125 311 17 529 53 81 71 99 77 79 33 -111 151
-239 309 -335 57 -34 105 -62 108 -62 5 0 57 -32 128 -79 47 -31 96 -95 96
-127 0 -21 -3 -22 -52 -18 -120 10 -251 63 -366 148 -51 38 -61 50 -52 61 17
21 -2 49 -57 80 -59 35 -121 81 -150 115 -30 33 -29 14 2 -62 14 -34 23 -63
21 -65 -2 -3 -23 5 -46 17 -86 44 -62 -22 38 -103 64 -52 70 -60 57 -73 -8 -9
-15 -18 -15 -22 0 -15 49 -63 110 -109 135 -100 306 -156 482 -157 l108 -1 0
-139 c0 -140 4 -164 16 -90 9 57 42 152 71 201 22 39 31 45 96 64 40 12 86 28
102 36 35 18 40 26 -57 -87 -73 -86 -168 -229 -168 -253 0 -3 51 -5 113 -5
l112 1 235 236 c287 289 330 337 411 456 130 191 185 433 147 645 -14 78 -24
81 -32 10 -16 -143 -77 -276 -195 -426 -103 -132 -161 -194 -154 -165 l6 24
-47 -28 c-26 -15 -49 -25 -52 -23 -2 3 2 18 10 33 8 16 18 44 21 64 4 25 23
55 61 96 161 176 285 383 318 530 15 68 16 234 2 295 -13 55 -46 134 -72 168
-30 38 -44 29 -25 -16 27 -65 30 -176 7 -257 -2 -5 -7 -23 -11 -40 -24 -89
-138 -267 -241 -376 -74 -80 -71 -81 -66 29 4 93 5 98 36 132 155 167 221 324
218 519 -3 150 -80 293 -181 333 -16 6 -102 10 -220 9 -171 -2 -193 -1 -188
13 5 13 11 328 7 361 -1 6 -8 -21 -17 -60 -17 -82 -64 -176 -128 -257 l-45
-58 -82 0 -82 0 36 38 c85 90 104 111 160 185 64 83 129 205 147 274 12 43 17
380 7 391 -3 3 -6 -6 -6 -20 0 -45 -38 -151 -77 -215 -71 -114 -136 -188 -423
-477 l-175 -176 -90 0 -90 0 302 303 c166 166 312 313 324 327 129 151 203
275 228 381 9 35 21 389 14 389 -1 0 -4 -4 -7 -9z m369 -1415 c86 -66 102
-225 39 -380 -21 -52 -71 -146 -77 -146 -2 0 -4 124 -6 275 -1 151 1 275 5
275 4 0 22 -11 39 -24z m-524 -1598 c-12 -18 -38 -64 -57 -101 -36 -71 -39
-73 -93 -81 -32 -4 -33 -4 -27 26 3 16 16 44 28 61 l22 31 7 -24 c5 -18 8 -20
9 -7 1 9 4 22 5 27 1 6 3 14 4 19 1 8 108 80 119 81 2 0 -6 -15 -17 -32z"/>
<path d="M2418 1854 c-2 -1 -34 -5 -73 -8 -100 -9 -119 -12 -220 -30 -49 -9
-103 -18 -120 -21 -29 -5 -76 -13 -125 -21 -14 -3 -77 -14 -140 -25 -63 -12
-126 -23 -140 -25 -112 -20 -140 -24 -174 -30 -21 -3 -48 -8 -60 -10 -11 -3
-70 -14 -130 -25 -75 -13 -114 -25 -122 -37 -6 -9 -34 -47 -60 -84 -27 -36
-56 -76 -64 -88 -8 -12 -57 -79 -108 -148 -51 -70 -101 -138 -110 -153 -9 -14
-63 -88 -119 -166 -57 -78 -103 -143 -103 -146 0 -2 21 0 47 5 27 5 63 11 82
14 18 3 43 8 55 10 11 2 36 7 55 10 18 3 43 8 55 10 21 4 102 18 166 29 112
20 143 25 220 39 47 9 99 18 115 21 17 3 46 8 65 11 19 4 44 8 55 10 11 1 45
7 75 13 30 6 71 13 90 16 52 8 103 17 125 22 306 64 633 88 770 57 135 -32
227 -98 284 -204 18 -33 33 -60 34 -60 1 0 2 120 1 268 l-1 267 -134 3 c-73 1
-136 7 -139 11 -4 7 -5 144 -1 174 1 4 62 7 137 7 l136 0 -6 66 c-8 79 -23
112 -72 152 -48 40 -133 62 -249 66 -52 2 -96 2 -97 0z"/>
<path d="M3509 1603 c-314 -319 -394 -423 -454 -593 -9 -25 -18 -74 -21 -110
l-5 -65 21 44 c47 100 131 174 236 209 77 26 128 33 244 32 110 0 160 -5 310
-30 30 -5 69 -11 85 -14 17 -3 71 -12 120 -21 50 -9 99 -17 110 -19 11 -1 34
-5 50 -9 17 -3 48 -9 70 -12 22 -3 47 -7 55 -10 8 -2 33 -6 55 -10 33 -4 167
-27 295 -49 14 -3 41 -7 60 -10 19 -3 44 -8 56 -10 11 -2 101 -18 200 -35 98
-17 190 -33 203 -36 13 -2 48 -7 79 -11 49 -6 54 -5 41 9 -8 8 -139 188 -292
400 l-278 385 -67 12 c-37 7 -76 14 -87 16 -24 5 -42 8 -160 29 -92 15 -130
22 -175 31 -14 2 -41 7 -60 9 -19 3 -46 8 -60 11 -26 6 -44 9 -100 18 -19 3
-47 8 -62 11 -37 7 -70 13 -143 25 -33 6 -71 13 -85 16 -22 4 -53 -23 -241
-213z"/>
<path d="M5320 1393 c-52 -20 -89 -98 -70 -147 38 -101 181 -103 220 -2 10 26
5 68 -10 97 -23 41 -96 69 -140 52z m105 -36 c32 -27 44 -92 22 -122 -13 -17
-17 -17 -31 -5 -28 23 -39 50 -26 65 19 23 -5 55 -43 55 l-32 0 0 -68 c0 -63
2 -68 21 -68 18 0 20 3 11 17 -5 9 -7 25 -3 35 6 16 9 15 26 -11 10 -16 29
-34 41 -41 21 -11 21 -12 -14 -23 -90 -30 -166 55 -124 139 26 52 107 66 152
27z m-51 -33 c8 -20 -1 -34 -20 -34 -8 0 -14 10 -14 25 0 28 24 34 34 9z"/>
<path d="M3030 1228 c0 -148 3 -173 14 -113 13 72 20 94 53 160 19 39 38 74
44 80 19 19 7 25 -51 25 l-60 0 0 -152z"/>
</g>
</svg>
